<?xml version="1.0" encoding="utf-8"?>
<!-- Generator: Adobe Illustrator 23.0.2, SVG Export Plug-In . SVG Version: 6.00 Build 0)  -->
<svg version="1.1" id="Capa_1" xmlns="http://www.w3.org/2000/svg" xmlns:xlink="http://www.w3.org/1999/xlink" x="0px" y="0px"
	 viewBox="0 0 80 80" style="enable-background:new 0 0 80 80;" xml:space="preserve">
<style type="text/css">
	.st0{fill:#807976;}
	.st1{fill:#C52038;}
</style>
<g>
	<g>
		<path class="st0" d="M75.4,75.9l-3.5-20.7c-0.4-2.2-2-4-4.1-4.7l-9.5-2.9c-0.2-2.3-1.2-4.5-2.7-6.3c-1.3-1.4-2.9-2.4-4.6-3
			c0.3-0.3,0.6-0.7,0.8-1c2.3-2.9,3.5-6.1,3.8-8.2h0.7c1.9,0,3.5-1.6,3.5-3.5v-1.8c0-1.3-0.7-2.4-1.8-3v-4.3c0-0.6-0.5-1.2-1.2-1.2
			s-1.2,0.5-1.2,1.2v4.8c-0.5,0.1-1,0.2-1.6,0.5c-0.1,0-0.1,0-0.2,0.1c-0.1,0.1-0.3,0.1-0.4,0.2v-9.4c0-2.6-2.1-4.7-4.7-4.7h-3.2
			c-1.1,0-2.2,0.4-3.1,1.1l-0.3,0.3C41.5,9.7,40.8,10,40,10c-0.8,0-1.5-0.3-2.1-0.7L37.6,9c-0.9-0.7-2-1.1-3.1-1.1h-3.2
			c-2.6,0-4.7,2.1-4.7,4.7v9.4c-0.1-0.1-0.3-0.1-0.4-0.2c-0.1,0-0.1-0.1-0.2-0.1c-0.6-0.2-1.1-0.4-1.6-0.5V9.2
			c0-3.8,3.1-6.9,6.9-6.9h17.3c3.8,0,6.9,3.1,6.9,6.9v1.8c0,0.6,0.5,1.2,1.2,1.2s1.2-0.5,1.2-1.2V9.2c0-5.1-4.1-9.2-9.2-9.2H31.4
			c-5.1,0-9.2,4.1-9.2,9.2v11.6c-1.1,0.6-1.8,1.8-1.8,3v1.8c0,1.9,1.6,3.5,3.5,3.5h0.7c0.3,2.2,1.5,5.4,3.8,8.2
			c0.3,0.3,0.5,0.7,0.8,1c-4.1,1.3-7,4.9-7.4,9.2l-9.5,2.9c-2.2,0.7-3.8,2.4-4.1,4.7l-1.4,8.4c-0.1,0.6,0.3,1.2,1,1.4
			c0.6,0.1,1.2-0.3,1.4-1l1.4-8.4c0.2-1.4,1.2-2.4,2.5-2.8l8.8-2.7v2.3c-2,0.4-3.7,1.8-4.5,3.7c-0.2,0.5-0.3,1-0.3,1.6l-0.9,11
			c-0.1,0.8,0.2,1.6,0.8,2.3c0.6,0.6,1.4,1,2.2,1h1.5c0.6,0,1.2-0.5,1.2-1.2s-0.5-1.2-1.2-1.2h-1.5c-0.2,0-0.3-0.1-0.5-0.2
			c-0.1-0.1-0.2-0.3-0.2-0.5l0.9-11c0-0.3,0.1-0.7,0.2-1c0.5-1.3,1.8-2.2,3.3-2.3l0.2,0c0,0,0,0,0,0c1.4,0,2.7,0.8,3.3,2.1
			c0.2,0.4,0.2,0.7,0.3,1.1l0.9,11c0,0.2,0,0.4-0.2,0.5c-0.1,0.1-0.3,0.2-0.5,0.2h-1.5c-0.6,0-1.2,0.5-1.2,1.2
			c0,0.6,0.5,1.2,1.2,1.2h1.5c0.8,0,1.6-0.3,2.2-1c0.6-0.6,0.8-1.4,0.8-2.3l-0.9-11c-0.1-0.6-0.2-1.3-0.5-1.9
			c-0.8-1.8-2.4-3.1-4.4-3.4v-3l4-1.2c0.4,0.8,1.1,2.4,2.5,6c1.4,3.6,3.3,8.3,5,12.8c0,0,0,0.1,0,0.1c1.2,3,2.3,6,3.2,8.5
			c0.2,0.5,0.6,0.8,1.1,0.8s0.9-0.3,1.1-0.8c1-2.5,2.1-5.5,3.2-8.5c0,0,0-0.1,0-0.1c1.7-4.5,3.5-9.2,5-12.8c1.4-3.6,2.2-5.3,2.5-6
			l4,1.2v6.9c-2.8,0.5-4.9,3-4.9,5.9c0,3.3,2.7,6.1,6.1,6.1c3.3,0,6.1-2.7,6.1-6.1c0-2.9-2.1-5.4-4.9-5.9v-6.2l8.8,2.7
			c1.3,0.4,2.3,1.5,2.5,2.8l3.5,20.7c0.1,0.3,0,0.7-0.3,0.9c-0.2,0.3-0.5,0.4-0.9,0.4H8c-0.3,0-0.7-0.1-0.9-0.4
			c-0.2-0.3-0.3-0.6-0.3-0.9l1.2-6.8c0.1-0.6-0.3-1.2-1-1.4c-0.6-0.1-1.2,0.3-1.4,1l-1.2,6.8c-0.2,1,0.1,2.1,0.8,2.9
			C6,79.5,7,80,8,80H72c1,0,2-0.5,2.7-1.2C75.3,78,75.6,76.9,75.4,75.9z M55.5,23.8c0.6-0.2,1.1-0.2,1.1-0.2c0.2,0,0.4,0,0.6-0.1
			c0.1,0.1,0.1,0.3,0.1,0.4v1.8c0,0.6-0.5,1.1-1.1,1.1h-0.7L55.5,23.8L55.5,23.8z M24.5,26.8L24.5,26.8h-0.7c-0.6,0-1.1-0.5-1.1-1.1
			v-1.8c0-0.1,0-0.3,0.1-0.4c0.2,0.1,0.4,0.1,0.6,0.1c0,0,0.5,0,1.1,0.2L24.5,26.8L24.5,26.8z M26.8,28.1V25
			c0.4,0.1,0.7,0.1,1.1-0.1c0.6-0.3,1-0.9,1-1.5V12.6c0-1.3,1.1-2.4,2.4-2.4h3.2c0.6,0,1.1,0.2,1.6,0.6l0.3,0.3
			c1,0.8,2.3,1.3,3.6,1.3c1.3,0,2.6-0.5,3.6-1.3l0.3-0.3c0.4-0.4,1-0.6,1.6-0.6h3.2c1.3,0,2.4,1.1,2.4,2.4v10.8c0,0.7,0.4,1.3,1,1.5
			c0.2,0.1,0.4,0.1,0.6,0.1c0.2,0,0.3,0,0.5-0.1v3.1c0,1.7-1.2,5-3.4,7.8c-0.7,0.9-1.7,1.9-2.8,2.8c0,0-0.1,0.1-0.1,0.1
			c-1.8,1.3-4.1,2.3-6.9,2.3s-5.1-1-6.9-2.3c0,0-0.1-0.1-0.1-0.1c-1.1-0.9-2.1-1.9-2.8-2.8C28,33.1,26.8,29.8,26.8,28.1z M47.7,47
			L40,52.8L32.3,47c0.8-1,1.2-2.2,1.2-3.3v-1.9c1.8,1,4,1.6,6.5,1.6c2.5,0,4.7-0.7,6.5-1.6v1.9C46.5,44.8,46.9,46.1,47.7,47z
			 M30.4,45.7c-0.6-0.2-1.3-0.3-2-0.1c0,0-0.1,0-0.1,0l-4,1.2c0.7-3.4,3.4-6,6.9-6.6v3.4C31.2,44.5,30.8,45.2,30.4,45.7z M33.5,55.1
			C33.5,55.1,33.5,55.1,33.5,55.1c-0.1-0.2-0.1-0.3-0.2-0.5c0,0,0-0.1,0-0.1c-0.1-0.1-0.1-0.3-0.2-0.4c0,0,0,0,0,0
			c-0.2-0.4-0.3-0.9-0.5-1.3c0,0,0-0.1,0-0.1c0-0.1-0.1-0.2-0.1-0.3c0,0,0-0.1,0-0.1c0-0.1-0.1-0.2-0.1-0.3c0,0,0-0.1,0-0.1
			c-0.1-0.2-0.2-0.4-0.2-0.6c0,0,0-0.1-0.1-0.1c0-0.1-0.1-0.1-0.1-0.2c0-0.1-0.1-0.1-0.1-0.2c0,0,0-0.1,0-0.1c0,0,0,0,0-0.1
			c-0.1-0.3-0.3-0.6-0.4-0.9c0,0,0,0,0,0c-0.1-0.2-0.1-0.3-0.2-0.5c0-0.1-0.1-0.1-0.1-0.2l6.6,4.9l-2.8,1.2c0,0,0,0,0,0l-1.2,0.5
			C33.7,55.5,33.6,55.3,33.5,55.1z M36.3,62.3c-0.2-0.6-0.5-1.2-0.7-1.8c-0.4-0.9-0.7-1.8-1-2.7l0.4-0.2l1.8,2.1L36.3,62.3z
			 M40,71.8c0-0.1-0.1-0.1-0.1-0.2c-0.5-1.4-1.2-3.2-1.9-5.1l1.1-6h1.9l1.1,6C41.3,68.6,40.6,70.4,40,71.8z M41.4,58.2h-2.8
			l-1.3-1.5l2.7-1.1l2.7,1.1L41.4,58.2z M44.4,60.5c-0.2,0.6-0.5,1.2-0.7,1.8l-0.5-2.6l1.8-2.1l0.4,0.2
			C45.1,58.7,44.7,59.6,44.4,60.5z M48.8,49.2c-0.1,0.1-0.1,0.3-0.2,0.4c0,0,0,0,0,0.1c-0.1,0.1-0.1,0.3-0.2,0.4c0,0,0,0,0,0
			c-0.1,0.1-0.1,0.3-0.2,0.4c0,0,0,0.1,0,0.1c0,0,0,0.1,0,0.1c0,0.1-0.1,0.1-0.1,0.2c0,0.1-0.1,0.2-0.1,0.2c0,0,0,0.1,0,0.1
			c-0.1,0.2-0.2,0.4-0.3,0.6c0,0,0,0.1,0,0.1c0,0.1-0.1,0.2-0.1,0.3c0,0,0,0.1-0.1,0.1c0,0.1-0.1,0.2-0.1,0.3c0,0,0,0.1,0,0.1
			c-0.2,0.4-0.3,0.8-0.5,1.2c0,0,0,0,0,0c-0.1,0.1-0.1,0.3-0.2,0.4c0,0,0,0.1,0,0.1c-0.1,0.1-0.1,0.3-0.2,0.4c0,0,0,0,0,0
			c-0.1,0.2-0.1,0.3-0.2,0.5l-1.2-0.5c0,0,0,0,0,0L42.3,54l6.6-4.9C48.9,49.1,48.9,49.2,48.8,49.2z M51.7,45.7
			C51.7,45.7,51.7,45.7,51.7,45.7C51.7,45.7,51.7,45.7,51.7,45.7c-0.7-0.2-1.4-0.2-2.1,0.1c-0.5-0.5-0.8-1.3-0.8-2v-3.4
			c3.5,0.5,6.2,3.2,6.9,6.6L51.7,45.7z M60.8,62.2c0,2.1-1.7,3.7-3.7,3.7c-2.1,0-3.7-1.7-3.7-3.7c0-2.1,1.7-3.7,3.7-3.7
			C59.1,58.5,60.8,60.2,60.8,62.2z"/>
	</g>
	<g>
		<g>
			<path class="st1" d="M55.9,49.4v6.9c-2.8,0.5-4.9,3-4.9,5.9c0,3.3,2.7,6.1,6.1,6.1c3.3,0,6.1-2.7,6.1-6.1c0-2.9-2.1-5.4-4.9-5.9
				v-6.2l0-2.5c-0.2-2.3-1.2-4.5-2.7-6.3c-1.3-1.4-2.9-2.4-4.6-3l-2,1.9c3.5,0.5,6.2,3.2,6.9,6.6L55.9,49.4z M21.8,50.1v2.3
				c-2,0.4-3.7,1.8-4.5,3.7c-0.2,0.5-0.3,1-0.3,1.6l-0.9,11c-0.1,0.8,0.2,1.6,0.8,2.3c0.6,0.6,1.4,1,2.2,1h1.5
				c0.6,0,1.2-0.5,1.2-1.2s-0.5-1.2-1.2-1.2h-1.5c-0.2,0-0.3-0.1-0.5-0.2c-0.1-0.1-0.2-0.3-0.2-0.5l0.9-11c0-0.3,0.1-0.7,0.2-1
				c0.5-1.3,1.8-2.2,3.3-2.3l0.2,0c0,0,0,0,0,0c1.4,0,2.7,0.8,3.3,2.1c0.2,0.4,0.2,0.7,0.3,1.1l0.9,11c0,0.2,0,0.4-0.2,0.5
				c-0.1,0.1-0.3,0.2-0.5,0.2h-1.5c-0.6,0-1.2,0.5-1.2,1.2c0,0.6,0.5,1.2,1.2,1.2h1.5c0.8,0,1.6-0.3,2.2-1c0.6-0.6,0.8-1.4,0.8-2.3
				l-0.9-11c-0.1-0.6-0.2-1.3-0.5-1.9c-0.8-1.8-2.4-3.1-4.4-3.4v-3l0.2-2.5c0.7-3.4,3.4-6,6.9-6.6l-2-1.9c-4.1,1.3-7,4.9-7.4,9.2
				L21.8,50.1z M60.8,62.2c0,2.1-1.7,3.7-3.7,3.7c-2.1,0-3.7-1.7-3.7-3.7c0-2.1,1.7-3.7,3.7-3.7C59.1,58.5,60.8,60.2,60.8,62.2z"/>
		</g>
	</g>
</g>
</svg>
